<svg width="44" height="42" viewBox="0 0 44 42" fill="none" xmlns="http://www.w3.org/2000/svg">
<path d="M43.9779 13.8394L42.1328 24.3617C41.9052 25.524 40.9735 26.2307 39.8991 26.244H12.9983L12.4642 29.2366H38.1025C39.4525 29.3385 40.3683 30.2892 40.3847 31.505C40.2865 32.8442 39.3303 33.757 38.1025 33.7736H9.74501C8.21135 33.6365 7.29685 32.4213 7.4628 31.0707L8.67672 24.5063L6.83155 6.06835L1.58737 4.42737C0.305833 3.92159 -0.217217 2.7692 0.0820928 1.57963C0.57977 0.339874 1.77228 -0.226555 2.94697 0.0833571L9.64788 2.20711C10.5506 2.54348 11.0699 3.27801 11.2017 4.1378L11.5901 7.80608L41.987 11.1848C43.3837 11.4855 44.1419 12.5851 43.9779 13.8394ZM16.6933 38.5369C16.6933 40.4495 15.1335 42 13.2093 42C11.2852 42 9.72536 40.4495 9.72536 38.5369C9.72536 36.6242 11.2852 35.0737 13.2093 35.0737C15.1335 35.0737 16.6933 36.6243 16.6933 38.5369ZM37.4925 38.5369C37.4925 40.4495 35.9327 42 34.0085 42C32.0844 42 30.5246 40.4495 30.5246 38.5369C30.5246 36.6242 32.0844 35.0737 34.0085 35.0737C35.9327 35.0737 37.4925 36.6243 37.4925 38.5369Z" fill="white"/>
</svg>
