<svg  viewBox="0 0 115 113" fill="none" xmlns="http://www.w3.org/2000/svg">
<path d="M72.6508 30.8177C72.6508 30.9635 72.6203 31.1076 72.5614 31.241C72.5025 31.3743 72.4164 31.4939 72.3086 31.5921C72.2008 31.6903 72.0738 31.7649 71.9355 31.8112C71.7973 31.8574 71.6508 31.8743 71.5057 31.8608C67.2219 31.4713 62.5349 31.2349 57.5001 31.2581C52.9474 31.2581 48.6915 31.5038 44.7555 31.8608C44.6103 31.8743 44.4639 31.8574 44.3256 31.8112C44.1874 31.7649 44.0603 31.6903 43.9525 31.5921C43.8448 31.4939 43.7587 31.3743 43.6997 31.241C43.6408 31.1076 43.6104 30.9635 43.6104 30.8177V19.3433C43.6097 19.0854 43.7037 18.8362 43.8746 18.6431C44.0456 18.4499 44.2815 18.3263 44.5376 18.2956C48.5524 17.8876 52.966 17.6187 57.7272 17.6048C62.3953 17.5918 67.061 17.8223 71.705 18.2956C71.9611 18.3263 72.197 18.4499 72.368 18.6431C72.5389 18.8362 72.6329 19.0854 72.6323 19.3433L72.6508 30.8177Z" stroke="white" stroke-width="4" stroke-miterlimit="10"/>
<path d="M68.8722 61.5271C68.8721 61.4326 68.8912 61.339 68.9285 61.2521C68.9657 61.1652 69.0203 61.0869 69.0888 61.0218C69.1574 60.9567 69.2385 60.9063 69.3272 60.8736C69.4159 60.8409 69.5103 60.8266 69.6047 60.8317C73.4851 61.0681 76.4754 62.649 80.0405 62.955C80.2436 62.9691 80.4473 62.941 80.639 62.8727C80.8307 62.8044 81.0062 62.6973 81.1546 62.5581C81.303 62.4188 81.421 62.2504 81.5014 62.0635C81.5817 61.8765 81.6226 61.675 81.6215 61.4715V42.2224C81.6265 41.3666 81.2932 40.5435 80.6942 39.9322C80.0786 39.3399 79.2583 39.0078 78.404 39.005C71.8254 38.4394 64.6534 38.1009 56.9667 38.1427C50.2073 38.1751 43.8559 38.4997 37.9588 39.005C37.1214 39.005 36.3184 39.3376 35.7263 39.9297C35.1342 40.5218 34.8016 41.3248 34.8016 42.1622V61.4715C34.7993 61.6786 34.8407 61.8838 34.923 62.0738C35.0053 62.2639 35.1268 62.4344 35.2794 62.5744C35.4321 62.7144 35.6125 62.8206 35.809 62.8862C36.0054 62.9518 36.2135 62.9752 36.4196 62.955C39.9801 62.6537 43.6333 60.5442 47.3422 61.1748" stroke="white" stroke-width="4" stroke-miterlimit="10" stroke-linecap="round"/>
<path d="M60.3373 50.368C60.3373 48.9726 59.2071 47.8414 57.8129 47.8414C56.4188 47.8414 55.2886 48.9726 55.2886 50.368V76.3255C55.2886 77.7209 56.4188 78.8522 57.8129 78.8522C59.2071 78.8522 60.3373 77.7209 60.3373 76.3255V50.368Z" fill="white"/>
<path d="M57.7456 57.248C64.343 65.4143 73.1661 71.4933 83.1467 74.7492" stroke="white" stroke-width="4" stroke-miterlimit="10" stroke-linecap="round"/>
<path d="M83.1422 74.7492L77.1477 90.2152" stroke="white" stroke-width="4" stroke-miterlimit="10" stroke-linecap="round"/>
<path d="M58.2881 57.248C51.6945 65.4163 42.8723 71.4959 32.8916 74.7492" stroke="white" stroke-width="4" stroke-miterlimit="10" stroke-linecap="round"/>
<path d="M38.8861 90.2152L32.8916 74.7492" stroke="white" stroke-width="4" stroke-miterlimit="10" stroke-linecap="round"/>
<path d="M1 79.7979C5.17378 79.0104 9.46045 79.0371 13.6241 79.8767C25.4044 82.3246 27.1614 89.9139 36.0349 90.8457C45.678 91.861 47.449 83.3028 58.3669 83.6644C68.5942 84.0075 69.7949 91.606 78.5664 90.8457C87.171 90.1039 89.0439 82.5378 100.189 79.9555C104.741 78.9479 109.46 78.9748 114 80.0344" stroke="white" stroke-width="4" stroke-miterlimit="10"/>
<path d="M6.52148 89.9C9.96136 89.875 13.3899 90.2973 16.7209 91.1563C27.8892 94.0585 29.4377 99.8351 36.8925 100.892C46.1044 102.176 47.7409 93.938 58.5152 94.0214C69.2895 94.1049 70.8658 102.445 79.5121 101.045C87.3563 99.7748 89.2478 92.4081 100.421 90.0761C103.042 89.5316 105.724 89.346 108.395 89.5244" stroke="#00AABE" stroke-width="4" stroke-miterlimit="10"/>
<path d="M31.9319 110.257C34.943 110.686 38.0015 110.66 41.0047 110.178C50.0173 108.713 51.0882 104.193 57.2635 104.184C63.4387 104.174 64.7507 108.783 73.5964 110.178C76.8441 110.679 80.1533 110.626 83.3832 110.021" stroke="white" stroke-width="4" stroke-miterlimit="10"/>
<path d="M60.3373 29.6123H55.2886V40.6183H60.3373V29.6123Z" fill="white"/>
<path d="M57.4999 18.9956C56.8298 18.9956 56.1872 18.7294 55.7133 18.2556C55.2395 17.7817 54.9733 17.1391 54.9733 16.469V2.63487C54.9587 2.29427 55.0131 1.95423 55.1334 1.63524C55.2537 1.31624 55.4373 1.02489 55.6731 0.778718C55.909 0.532546 56.1922 0.33665 56.5058 0.202822C56.8193 0.068993 57.1567 0 57.4976 0C57.8385 0 58.1759 0.068993 58.4895 0.202822C58.803 0.33665 59.0863 0.532546 59.3221 0.778718C59.5579 1.02489 59.7415 1.31624 59.8618 1.63524C59.9821 1.95423 60.0366 2.29427 60.022 2.63487V16.469C60.0226 16.8005 59.9578 17.129 59.8313 17.4355C59.7049 17.742 59.5192 18.0206 59.2849 18.2553C59.0507 18.49 58.7724 18.6762 58.4661 18.8032C58.1599 18.9302 57.8315 18.9956 57.4999 18.9956Z" fill="white"/>
<path d="M58.251 10.9103C59.5167 11.5779 60.8055 8.80088 63.9302 8.54126C67.2265 8.26773 68.2279 11.1514 71.3897 10.9103C74.8946 10.6368 77.5928 6.78418 77.1895 6.17222C76.8649 5.68079 74.8065 7.69749 71.9785 7.23852C68.5571 6.68683 68.2928 3.20976 64.876 2.50507C62.4884 2.01365 59.5862 3.08922 58.251 5.22645C56.9807 7.22924 57.0688 10.2844 58.251 10.9103Z" fill="white"/>
<path d="M58.2882 52.0324C58.0749 52.292 57.8524 52.5563 57.616 52.8298" stroke="white" stroke-width="4" stroke-miterlimit="10"/>
<path d="M57.6159 52.8298C57.0827 52.2317 56.5913 51.6522 56.137 51.1052" stroke="white" stroke-width="4" stroke-miterlimit="10"/>
<path d="M68.1178 62.2225H68.1121" stroke="white" stroke-width="4" stroke-miterlimit="10"/>
</svg>
